<?xml version="1.0" encoding="UTF-8"?>
<svg width="700pt" height="600pt" version="1.1" viewBox="0 0 700 600" xmlns="http://www.w3.org/2000/svg" xmlns:xlink="http://www.w3.org/1999/xlink">
 <g>
  <path d="m348.43 33.672c-2.3008 0.33203-4.4414 1.3711-6.125 2.9766-48.363 46.109-139.96 53.023-188.3 53.023-6.1836 0-11.199 5.0156-11.199 11.199 0 104.07-1.7227 191.72 23.102 263.73 24.82 72.008 77.742 126.83 180.6 161.18h-0.003906c2.2734 0.74609 4.7266 0.74609 7 0 98.047-32.738 150.9-79.418 177.1-142.62 26.199-63.207 26.625-140.73 26.602-237.48h-0.003906c0.042969-2.9961-1.1172-5.8867-3.2227-8.0234-2.1055-2.1328-4.9766-3.3359-7.9766-3.3359s-5.8711 1.2031-7.9766 3.3359c-2.1055 2.1367-3.2656 5.0273-3.2227 8.0234 0.027344 96.605-1.3164 171.71-25.023 228.9-23.387 56.422-68.141 97.273-159.95 128.62-95.699-32.82-140.2-80.527-162.75-145.95-22.031-63.898-21.914-146.33-21.879-245.52 49.703-0.65234 130.63-7.375 184.8-52.676 57.938 48.449 148.05 53.023 196 53.023 2.9961 0.042969 5.8867-1.1172 8.0234-3.2227 2.1328-2.1055 3.3359-4.9766 3.3359-7.9766 0-2.9961-1.2031-5.8711-3.3359-7.9766-2.1367-2.1055-5.0273-3.2656-8.0234-3.2227-48.344 0-139.94-6.9102-188.3-53.023-2.4766-2.3555-5.8906-3.4531-9.2734-2.9766z"/>
 </g>
</svg>
